HIERARCHY
ROOT reference
{
  OFFSET -65.3212 -1.93545 -120.338
  CHANNELS 6 Xposition Yposition Zposition Zrotation Xrotation Yrotation
  JOINT Hips
  {
    OFFSET 0 78.7191 0
    CHANNELS 3 Zrotation Xrotation Yrotation
    JOINT Chest
    {
      OFFSET 0 8.7983 -4.7612
      CHANNELS 3 Zrotation Xrotation Yrotation
      JOINT Chest2
      {
        OFFSET 0 8.0291 0.4195
        CHANNELS 3 Zrotation Xrotation Yrotation
        JOINT Chest3
        {
          OFFSET 0 9.9351 -2.2114
          CHANNELS 3 Zrotation Xrotation Yrotation
          JOINT Neck
          {
            OFFSET 0 22.3885 -0.4656
            CHANNELS 3 Zrotation Xrotation Yrotation
            JOINT Head
            {
              OFFSET -0.0001 12.643 3.4389
              CHANNELS 3 Zrotation Xrotation Yrotation
              End Site
              {
                OFFSET 0.0001 17.6655 0.5274
              }
            }
          }
          JOINT LeftCollar
          {
            OFFSET 2.2603 21.606 7.4023
            CHANNELS 3 Zrotation Xrotation Yrotation
            JOINT LeftShoulder
            {
              OFFSET 13.5163 -1.1332 -5.0146
              CHANNELS 3 Zrotation Xrotation Yrotation
              JOINT LeftElbow
              {
                OFFSET -0.0995 -28.05 -0.2431
                CHANNELS 3 Zrotation Xrotation Yrotation
                JOINT LeftWrist
                {
                  OFFSET 0.0679 -23.3996 -0.1402
                  CHANNELS 3 Zrotation Xrotation Yrotation
                  JOINT LeftFinger1
                  {
                    OFFSET 0.7932 -9.069 2.5189
                    CHANNELS 3 Zrotation Xrotation Yrotation
                    JOINT LeftFinger11
                    {
                      OFFSET -0.8272 -3.3923 0.5977
                      CHANNELS 3 Zrotation Xrotation Yrotation
                      JOINT LeftFinger12
                      {
                        OFFSET -0.5649 -2.3158 0.4082
                        CHANNELS 3 Zrotation Xrotation Yrotation
                        End Site
                        {
                          OFFSET -0.4919 -1.6479 0.2673
                        }
                      }
                    }
                  }
                  JOINT LeftFinger2
                  {
                    OFFSET 0.9159 -9.2044 0.2193
                    CHANNELS 3 Zrotation Xrotation Yrotation
                    JOINT LeftFinger21
                    {
                      OFFSET 0.0117 -4.1944 -0.0248
                      CHANNELS 3 Zrotation Xrotation Yrotation
                      JOINT LeftFinger22
                      {
                        OFFSET 0.0071 -2.3249 -0.0142
                        CHANNELS 3 Zrotation Xrotation Yrotation
                        End Site
                        {
                          OFFSET -0.1475 -2.0882 0.0028
                        }
                      }
                    }
                  }
                  JOINT LeftFinger3
                  {
                    OFFSET 0.6113 -8.7231 -2.0637
                    CHANNELS 3 Zrotation Xrotation Yrotation
                    JOINT LeftFinger31
                    {
                      OFFSET -0.1927 -3.8059 -0.2383
                      CHANNELS 3 Zrotation Xrotation Yrotation
                      JOINT LeftFinger32
                      {
                        OFFSET -0.1091 -2.1688 -0.1362
                        CHANNELS 3 Zrotation Xrotation Yrotation
                        End Site
                        {
                          OFFSET -0.2358 -1.9176 -0.0906
                        }
                      }
                    }
                  }
                  JOINT LeftFinger4
                  {
                    OFFSET -0.6151 -8.0947 -3.5641
                    CHANNELS 3 Zrotation Xrotation Yrotation
                    JOINT LeftFinger41
                    {
                      OFFSET -0.4882 -2.341 -0.6462
                      CHANNELS 3 Zrotation Xrotation Yrotation
                      JOINT LeftFinger42
                      {
                        OFFSET -0.3575 -1.7167 -0.4742
                        CHANNELS 3 Zrotation Xrotation Yrotation
                        End Site
                        {
                          OFFSET -0.4187 -1.5237 -0.3496
                        }
                      }
                    }
                  }
                  JOINT LeftFinger0
                  {
                    OFFSET -1.42 -1.8761 1.4223
                    CHANNELS 3 Zrotation Xrotation Yrotation
                    JOINT LeftFinger01
                    {
                      OFFSET -1.1471 -3.4929 2.6334
                      CHANNELS 3 Zrotation Xrotation Yrotation
                      JOINT LeftFinger02
                      {
                        OFFSET -0.823 -2.3 1.6571
                        CHANNELS 3 Zrotation Xrotation Yrotation
                        End Site
                        {
                          OFFSET -0.5822 -1.6914 1.1582
                        }
                      }
                    }
                  }
                }
              }
            }
          }
          JOINT RightCollar
          {
            OFFSET -2.2603 21.606 7.4023
            CHANNELS 3 Zrotation Xrotation Yrotation
            JOINT RightShoulder
            {
              OFFSET -13.5187 -1.1334 -5.0155
              CHANNELS 3 Zrotation Xrotation Yrotation
              JOINT RightElbow
              {
                OFFSET 0.0994 -28.0499 -0.2431
                CHANNELS 3 Zrotation Xrotation Yrotation
                JOINT RightWrist
                {
                  OFFSET -0.0679 -23.3996 -0.1402
                  CHANNELS 3 Zrotation Xrotation Yrotation
                  JOINT RightFinger1
                  {
                    OFFSET -0.7932 -9.0691 2.5189
                    CHANNELS 3 Zrotation Xrotation Yrotation
                    JOINT RightFinger11
                    {
                      OFFSET 0.8272 -3.3923 0.5977
                      CHANNELS 3 Zrotation Xrotation Yrotation
                      JOINT RightFinger12
                      {
                        OFFSET 0.565 -2.3158 0.4082
                        CHANNELS 3 Zrotation Xrotation Yrotation
                        End Site
                        {
                          OFFSET 0.4919 -1.6479 0.2673
                        }
                      }
                    }
                  }
                  JOINT RightFinger2
                  {
                    OFFSET -0.916 -9.2044 0.2193
                    CHANNELS 3 Zrotation Xrotation Yrotation
                    JOINT RightFinger21
                    {
                      OFFSET -0.0117 -4.1944 -0.0248
                      CHANNELS 3 Zrotation Xrotation Yrotation
                      JOINT RightFinger22
                      {
                        OFFSET -0.0071 -2.3249 -0.0142
                        CHANNELS 3 Zrotation Xrotation Yrotation
                        End Site
                        {
                          OFFSET 0.1475 -2.0882 0.0028
                        }
                      }
                    }
                  }
                  JOINT RightFinger3
                  {
                    OFFSET -0.6113 -8.7231 -2.0637
                    CHANNELS 3 Zrotation Xrotation Yrotation
                    JOINT RightFinger31
                    {
                      OFFSET 0.1927 -3.8059 -0.2383
                      CHANNELS 3 Zrotation Xrotation Yrotation
                      JOINT RightFinger32
                      {
                        OFFSET 0.1091 -2.1688 -0.1362
                        CHANNELS 3 Zrotation Xrotation Yrotation
                        End Site
                        {
                          OFFSET 0.2358 -1.9176 -0.0906
                        }
                      }
                    }
                  }
                  JOINT RightFinger4
                  {
                    OFFSET 0.6151 -8.0947 -3.564
                    CHANNELS 3 Zrotation Xrotation Yrotation
                    JOINT RightFinger41
                    {
                      OFFSET 0.4882 -2.341 -0.6462
                      CHANNELS 3 Zrotation Xrotation Yrotation
                      JOINT RightFinger42
                      {
                        OFFSET 0.3574 -1.7166 -0.4742
                        CHANNELS 3 Zrotation Xrotation Yrotation
                        End Site
                        {
                          OFFSET 0.4187 -1.5237 -0.3496
                        }
                      }
                    }
                  }
                  JOINT RightFinger0
                  {
                    OFFSET 1.4199 -1.8761 1.4221
                    CHANNELS 3 Zrotation Xrotation Yrotation
                    JOINT RightFinger01
                    {
                      OFFSET 1.1472 -3.4929 2.6336
                      CHANNELS 3 Zrotation Xrotation Yrotation
                      JOINT RightFinger02
                      {
                        OFFSET 0.8229 -2.3 1.6571
                        CHANNELS 3 Zrotation Xrotation Yrotation
                        End Site
                        {
                          OFFSET 0.5822 -1.6914 1.1582
                        }
                      }
                    }
                  }
                }
              }
            }
          }
        }
      }
    }
    JOINT RightHip
    {
      OFFSET -9.412 3.9771 -0.7758
      CHANNELS 3 Zrotation Xrotation Yrotation
      JOINT RightKnee
      {
        OFFSET -0.7531 -40.938 0
        CHANNELS 3 Zrotation Xrotation Yrotation
        JOINT RightAnkle
        {
          OFFSET 0 -40.1986 0
          CHANNELS 3 Zrotation Xrotation Yrotation
          JOINT RightToe
          {
            OFFSET 0 -4.4182 9.239
            CHANNELS 3 Zrotation Xrotation Yrotation
            End Site
            {
              OFFSET 0 0 6.1981
            }
          }
        }
      }
    }
    JOINT LeftHip
    {
      OFFSET 9.4119 3.9773 -0.7758
      CHANNELS 3 Zrotation Xrotation Yrotation
      JOINT LeftKnee
      {
        OFFSET 0.7532 -40.9383 0
        CHANNELS 3 Zrotation Xrotation Yrotation
        JOINT LeftAnkle
        {
          OFFSET 0 -40.1986 0
          CHANNELS 3 Zrotation Xrotation Yrotation
          JOINT LeftToe
          {
            OFFSET 0 -4.4182 9.239
            CHANNELS 3 Zrotation Xrotation Yrotation
            End Site
            {
              OFFSET 0 0 6.1981
            }
          }
        }
      }
    }
  }
}
MOTION
Frames:	6
Frame Time:	0.0333333
-23.2634 -38.8867 -48.409 0 0 -0 1.90848 2.29309 -5.39606 -3.9645 -0.731488 0.877568 -7.91837 -1.52181 1.70268 -7.91841 -1.52182 1.70268 -2.44781 -17.9289 52.5043 -2.26612 28.9672 16.5975 9.89515 0.308113 -15.1104 -2.44162 -13.9199 14.0224 -18.1437 -40.4222 -3.69392 -14.4548 15.6738 117.473 -5.04463 10.1113 -1.03128 -23.5242 14.2737 1.71884 -34.4014 20.0125 4.39545 -8.80121 6.1041 0.325038 -31.506 19.1421 2.30693 -11.6596 7.36398 -0.401185 -12.9041 6.16147 2.81869 -13.7743 9.60681 -0.676569 -14.9289 10.4071 -0.627742 -1.79169 4.19497 3.71359 -18.4122 12.7385 -1.02544 -16.41 11.3618 -1.11444 -6.91749 -12.4788 -27.4388 -4.26781 0.209169 0.325202 0.692055 0.91499 -0.196149 -33.5092 -0.879906 31.8942 -96.3708 -8.60638 -62.0712 -15.567 -42.359 -55.2187 9.76086 7.3485 -82.7784 -7.60769 11.9965 6.07983 41.8375 12.6054 -5.5293 42.0495 12.6548 -5.57858 2.26663 6.82727 1.85952 52.3753 15.6205 -6.40188 29.5954 9.72811 -1.85872 13.9754 7.30484 -5.62677 29.1586 11.0822 -1.21703 30.5901 11.5854 -1.41892 7.14674 4.13436 -7.09797 28.1534 10.6142 -0.230731 22.9475 8.70108 0.2073 9.0872 -9.51777 50.5482 0.712999 -0.717406 -0.726348 -5.56101 11.5861 4.27029 -18.0214 8.55837 -29.7521 134.546 68.4932 -127.312 10.2556 -3.76589 -3.79564 -3.91252 18.7557 -4.32692 41.151 -1.99846 12.8696 -178.622 88.1812 178.218 -11.5619 6.09468 -3.59612 0.884201 22.0698 6.89066 
-20.4452 -39.5522 -48.2946 0 0 -0 1.96572 2.45412 -9.71497 -3.88004 -0.733066 0.965115 -7.7482 -1.52966 1.87862 -7.74823 -1.52967 1.87864 -2.58061 -17.7567 52.476 -2.36255 28.8767 16.5153 9.56862 0.280862 -15.3152 -1.75638 -13.9837 14.296 -17.9772 -40.5198 -4.35735 -15.0283 15.1261 118.754 -5.01261 10.1701 -1.04834 -23.7061 14.376 1.75452 -34.4356 20.0292 4.40549 -8.71036 6.05541 0.333738 -31.6699 19.2304 2.34594 -11.6262 7.34294 -0.402199 -12.8242 6.16706 2.8429 -13.7759 9.60791 -0.676509 -14.9347 10.4111 -0.627466 -1.59565 4.12992 3.76789 -18.4052 12.7337 -1.02583 -16.3188 11.2987 -1.11736 -6.95387 -12.543 -27.7564 -4.27178 0.210122 0.325024 0.80402 1.06233 -0.228804 -34.0876 -0.882821 31.7208 -97.2151 -8.35788 -62.3064 -15.4185 -42.3772 -55.1504 8.8695 9.94512 -81.603 -7.31344 12.0338 6.0161 41.8751 12.6141 -5.53809 42.1012 12.6667 -5.5907 2.33505 6.7737 1.81073 52.3753 15.6206 -6.40182 29.3731 9.66135 -1.82644 13.9595 7.30048 -5.62562 29.0332 11.0377 -1.19984 30.4671 11.5423 -1.40101 6.89743 4.13005 -7.08201 28.1131 10.5997 -0.226661 22.8278 8.65644 0.215292 9.10291 -9.67949 50.5131 0.723157 -0.713187 -0.739239 -5.58509 11.631 4.28972 -18.0782 8.17547 -30.4529 137.363 67.3365 -130.048 10.8547 -3.57416 -2.87061 -4.08069 18.3666 -4.37724 40.988 -1.75771 12.1431 -179.251 87.7396 178.938 -10.3901 6.24407 -4.29697 0.891764 22.8373 7.04455 
-17.7678 -40.1897 -47.9643 0 0 -0 2.02593 2.55715 -14.0944 -3.82673 -0.735697 1.07272 -7.64007 -1.54122 2.09422 -7.64009 -1.54122 2.09423 -2.7196 -17.6809 52.2857 -2.28438 28.5546 16.5229 9.30675 0.244949 -15.5941 -0.971366 -13.6923 14.7477 -18.2204 -41.0026 -5.26869 -15.3588 14.6792 120.003 -4.98669 10.2142 -1.06214 -23.8708 14.4685 1.78716 -34.4697 20.0459 4.41556 -8.60621 5.99714 0.341479 -31.8339 19.3185 2.38522 -11.5929 7.32191 -0.403221 -12.7444 6.17271 2.86713 -13.7775 9.609 -0.67647 -14.9406 10.4152 -0.627185 -1.39961 4.06506 3.82242 -18.3983 12.729 -1.02622 -16.2158 11.2275 -1.12052 -6.99063 -12.607 -28.074 -4.27571 0.211095 0.324873 0.916064 1.20964 -0.261777 -34.4092 -0.878218 31.4935 -98.142 -8.35755 -62.7071 -15.3159 -42.3037 -55.3069 7.954 12.6247 -79.9019 -7.01908 12.0707 5.95222 41.9127 12.6228 -5.54689 42.1529 12.6786 -5.60281 2.40351 6.72008 1.76204 52.3753 15.6205 -6.40197 29.151 9.5945 -1.79445 13.9436 7.29613 -5.62444 28.9078 10.9932 -1.18274 30.3442 11.4993 -1.38319 6.64818 4.12572 -7.06608 28.0728 10.5851 -0.222633 22.7081 8.61185 0.223232 9.11855 -9.84124 50.4779 0.733348 -0.708934 -0.752086 -5.60921 11.6759 4.30918 -18.0345 7.81831 -31.2226 139.619 66.262 -132.295 11.0909 -3.77713 -2.82968 -4.18013 18.3714 -4.42617 40.6505 -1.35335 11.7704 -179.679 87.0266 179.402 -10.0187 5.95599 -4.49992 0.897128 23.6048 7.19919 
-15.225 -40.8035 -47.5186 0 0 -0 2.07123 2.69558 -18.6297 -3.76321 -0.750321 1.18076 -7.51124 -1.57638 2.31002 -7.51127 -1.57639 2.31002 -2.9178 -17.8982 52.3621 -2.04883 28.3532 16.3281 8.94475 0.210299 -15.8594 -0.0529144 -13.004 15.3533 -18.7727 -41.9832 -6.74994 -15.6152 14.2259 121.671 -4.96072 10.2582 -1.07599 -24.0357 14.561 1.8201 -34.496 20.0588 4.42332 -8.50203 5.93889 0.34931 -31.984 19.399 2.42138 -11.5544 7.29764 -0.404329 -12.6645 6.17838 2.89131 -13.779 9.6101 -0.676402 -14.9465 10.4192 -0.62693 -1.20349 4.00036 3.87717 -18.3888 12.7225 -1.02675 -16.1128 11.1563 -1.12354 -7.02774 -12.6709 -28.3918 -4.27965 0.212067 0.324705 1.0282 1.35686 -0.295032 -34.9892 -0.878934 31.2639 -98.7158 -8.35646 -63.0175 -15.5573 -42.5279 -55.9739 6.89539 15.2952 -78.3462 -6.72466 12.1073 5.88812 41.9503 12.6315 -5.55571 42.2046 12.6905 -5.61496 2.47185 6.66641 1.71341 52.3753 15.6205 -6.40197 28.929 9.52754 -1.76274 13.9277 7.29177 -5.6233 28.7824 10.9487 -1.16582 30.2213 11.4562 -1.36547 6.39887 4.1213 -7.05015 28.0326 10.5705 -0.218594 22.5885 8.56724 0.231009 9.13409 -10.003 50.4428 0.743573 -0.704697 -0.764924 -5.63334 11.7208 4.32866 -17.9695 7.42984 -31.7526 141.616 65.1921 -134.311 11.0716 -4.03401 -2.58217 -4.26034 18.639 -4.46399 40.3045 -0.694036 11.9992 -179.978 86.1608 179.758 -9.3979 5.23117 -4.71863 0.916301 24.2845 7.35396 
-12.8408 -41.3767 -46.8852 0 0 -0 2.12803 2.81235 -22.8519 -3.71958 -0.724895 1.21935 -7.42387 -1.52722 2.38948 -7.4239 -1.52722 2.38949 -3.16047 -18.3778 52.4034 -1.87117 28.1364 16.441 8.55859 0.167859 -16.1904 0.890161 -12.0617 16.1418 -19.5092 -43.3808 -8.13214 -15.6208 13.8967 123.072 -4.93476 10.3023 -1.08987 -24.1869 14.6456 1.85057 -34.5173 20.0691 4.42957 -8.39789 5.88067 0.357244 -32.1199 19.4718 2.4543 -11.5158 7.27339 -0.405411 -12.5762 6.177 2.90869 -13.7806 9.61117 -0.676337 -14.9501 10.4216 -0.626765 -0.996503 3.9294 3.92433 -18.3793 12.716 -1.02727 -16.0098 11.0851 -1.12644 -7.06523 -12.7345 -28.7097 -4.28361 0.213052 0.324534 1.11769 1.47423 -0.321755 -35.536 -0.877193 30.9227 -99.3371 -8.07842 -63.1419 -15.6312 -43.0045 -56.0808 5.83793 17.6827 -77.8237 -6.43012 12.1436 5.82384 41.9879 12.6401 -5.56452 42.2564 12.7024 -5.62713 2.54018 6.61271 1.66487 52.3753 15.6205 -6.40197 28.707 9.46044 -1.73129 13.9118 7.28741 -5.62215 28.6571 10.9042 -1.14893 30.0984 11.4131 -1.34783 6.14963 4.11681 -7.03423 27.9923 10.5559 -0.214562 22.4688 8.52258 0.23873 9.14955 -10.1648 50.4078 0.753821 -0.700487 -0.777752 -5.65749 11.7657 4.34816 -17.7433 7.31683 -32.5744 143.15 64.3007 -135.866 11.4321 -4.13932 -1.4352 -4.40036 18.3925 -4.51734 39.9671 -0.216405 12.3656 179.782 85.0378 -179.914 -8.63156 4.49464 -4.74227 0.965409 24.757 7.51076 
-10.6189 -41.9121 -46.144 0 0 -0 2.19368 2.95388 -26.9917 -3.68843 -0.708418 1.2454 -7.36154 -1.49533 2.44297 -7.36154 -1.49533 2.44298 -3.40491 -18.9187 52.265 -1.70287 27.9638 16.6445 8.30186 0.135835 -16.4285 1.68662 -10.9941 16.9668 -20.5339 -44.8211 -9.3045 -15.3583 13.6756 124.009 -4.90877 10.3464 -1.10379 -24.324 14.7222 1.87834 -34.5386 20.0795 4.43585 -8.28188 5.81389 0.364378 -32.256 19.5445 2.48743 -11.4774 7.24915 -0.406492 -12.4879 6.17564 2.92607 -13.7822 9.61225 -0.676297 -14.9537 10.4242 -0.626575 -0.789448 3.85856 3.97169 -18.3698 12.7095 -1.0278 -15.897 11.0071 -1.12944 -7.09647 -12.785 -28.9587 -4.28757 0.214036 0.324375 1.20725 1.59155 -0.348664 -35.9587 -0.874438 30.6396 -99.9191 -7.64826 -63.162 -15.7254 -43.6596 -56.0554 4.88095 20.0099 -77.6509 -6.13553 12.1796 5.75935 42.0255 12.6488 -5.57333 42.3081 12.7143 -5.63929 2.6084 6.55892 1.61638 52.3753 15.6205 -6.40196 28.4851 9.39323 -1.70009 13.8959 7.28306 -5.62099 28.5317 10.8596 -1.13217 29.9756 11.3699 -1.3303 5.90029 4.11224 -7.01835 27.952 10.5413 -0.210548 22.3492 8.47791 0.246353 9.16491 -10.3265 50.3728 0.764063 -0.696243 -0.790561 -5.68167 11.8106 4.36769 -17.4917 7.26501 -33.3808 144.181 63.6574 -136.945 12.0398 -4.37125 -1.45446 -4.55824 18.0503 -4.57172 39.5228 0.176485 13.0963 179.621 83.6055 -179.695 -8.72921 4.01347 -4.64346 1.01325 25.2296 7.66776 
